<?xml version="1.0" encoding="utf-8"?>
<!-- Generator: Adobe Illustrator 16.0.0, SVG Export Plug-In . SVG Version: 6.00 Build 0)  -->
<!DOCTYPE svg PUBLIC "-//W3C//DTD SVG 1.1//EN" "http://www.w3.org/Graphics/SVG/1.1/DTD/svg11.dtd">
<svg version="1.1" id="Capa_1" xmlns="http://www.w3.org/2000/svg" xmlns:xlink="http://www.w3.org/1999/xlink" x="0px" y="0px"
	 width="150px" height="82.001px" viewBox="0 0 150 82.001" enable-background="new 0 0 150 82.001" xml:space="preserve">
<g>
	<path fill="#FFFFFF" d="M64.874,22.064v-8.093h5.852v0.955h-4.781v2.479h4.479v0.95h-4.479v2.754h4.971v0.955H64.874L64.874,22.064
		z M71.974,19.755l0.896-0.079c0.043,0.358,0.144,0.654,0.298,0.884c0.155,0.231,0.395,0.416,0.725,0.562
		c0.322,0.142,0.691,0.209,1.099,0.209c0.364,0,0.685-0.054,0.959-0.158c0.279-0.109,0.486-0.258,0.624-0.444
		c0.137-0.189,0.208-0.394,0.208-0.616c0-0.227-0.065-0.423-0.2-0.592c-0.132-0.167-0.345-0.309-0.646-0.422
		c-0.191-0.076-0.618-0.191-1.277-0.354c-0.658-0.156-1.125-0.307-1.389-0.447c-0.34-0.181-0.596-0.405-0.764-0.669
		c-0.17-0.266-0.252-0.566-0.252-0.896c0-0.36,0.102-0.702,0.307-1.014c0.207-0.318,0.509-0.557,0.904-0.72s0.834-0.245,1.314-0.245
		c0.535,0,1.003,0.086,1.412,0.258c0.402,0.17,0.722,0.422,0.939,0.755c0.213,0.334,0.336,0.712,0.352,1.132l-0.912,0.069
		c-0.051-0.454-0.215-0.798-0.498-1.029c-0.278-0.231-0.698-0.346-1.251-0.346c-0.576,0-0.994,0.103-1.258,0.315
		c-0.262,0.21-0.395,0.465-0.395,0.762c0,0.26,0.096,0.47,0.279,0.636c0.186,0.169,0.662,0.339,1.436,0.511
		c0.77,0.177,1.299,0.33,1.592,0.459c0.416,0.195,0.725,0.438,0.924,0.732c0.195,0.297,0.302,0.638,0.302,1.024
		c0,0.382-0.111,0.739-0.329,1.077c-0.217,0.339-0.532,0.603-0.944,0.789c-0.409,0.188-0.868,0.282-1.383,0.282
		c-0.652,0-1.197-0.095-1.636-0.285c-0.438-0.188-0.782-0.474-1.032-0.854C72.118,20.667,71.985,20.236,71.974,19.755L71.974,19.755
		z M84.117,19.544l0.951,0.239c-0.2,0.781-0.563,1.376-1.077,1.786c-0.521,0.411-1.15,0.615-1.898,0.615
		c-0.774,0-1.401-0.158-1.889-0.472c-0.483-0.315-0.854-0.773-1.104-1.37c-0.254-0.598-0.382-1.24-0.382-1.926
		c0-0.747,0.146-1.399,0.435-1.958c0.285-0.558,0.688-0.979,1.22-1.27c0.53-0.291,1.108-0.434,1.739-0.434
		c0.723,0,1.328,0.183,1.813,0.548c0.486,0.367,0.832,0.882,1.022,1.544l-0.936,0.22c-0.172-0.522-0.412-0.901-0.726-1.141
		c-0.315-0.239-0.714-0.359-1.196-0.359c-0.553,0-1.013,0.133-1.387,0.397c-0.369,0.265-0.631,0.62-0.781,1.066
		c-0.146,0.445-0.227,0.903-0.227,1.378c0,0.611,0.082,1.143,0.268,1.604c0.178,0.453,0.457,0.796,0.83,1.021
		c0.377,0.227,0.785,0.34,1.223,0.34c0.531,0,0.982-0.155,1.354-0.462C83.736,20.606,83.984,20.148,84.117,19.544L84.117,19.544z
		 M90.95,14.88h0.944v4.151c0,0.722-0.078,1.294-0.238,1.718c-0.164,0.426-0.463,0.77-0.887,1.035
		c-0.426,0.27-0.982,0.399-1.678,0.399c-0.674,0-1.226-0.115-1.65-0.347c-0.432-0.231-0.733-0.567-0.914-1.01
		c-0.188-0.438-0.274-1.036-0.274-1.798v-4.15h0.948v4.146c0,0.624,0.058,1.085,0.177,1.379c0.112,0.295,0.313,0.523,0.595,0.684
		c0.278,0.163,0.631,0.239,1.036,0.239c0.695,0,1.197-0.158,1.494-0.476c0.302-0.315,0.442-0.925,0.442-1.826v-4.146L90.95,14.88
		L90.95,14.88z M93.509,22.064V14.88h5.19v0.849h-4.241v2.198h3.976v0.845h-3.976v2.443h4.405v0.849H93.509L93.509,22.064z
		 M100.141,22.064V14.88h0.95v6.334h3.541v0.849L100.141,22.064L100.141,22.064z M104.973,22.064l2.76-7.184h1.024l2.938,7.184
		h-1.086l-0.84-2.175h-3.002l-0.787,2.175H104.973L104.973,22.064z M107.044,19.113h2.437l-0.752-1.988
		c-0.228-0.603-0.398-1.101-0.508-1.489c-0.095,0.462-0.227,0.918-0.392,1.374L107.044,19.113L107.044,19.113z M70.628,31.857
		l1.072,0.271c-0.227,0.878-0.63,1.551-1.214,2.012c-0.583,0.461-1.296,0.691-2.138,0.691c-0.875,0-1.582-0.178-2.129-0.531
		c-0.547-0.356-0.965-0.871-1.246-1.542c-0.287-0.675-0.432-1.399-0.432-2.17c0-0.842,0.163-1.578,0.482-2.204
		c0.322-0.627,0.781-1.104,1.378-1.43c0.591-0.328,1.247-0.49,1.962-0.49c0.811,0,1.488,0.205,2.04,0.62
		c0.556,0.41,0.938,0.989,1.153,1.737l-1.055,0.249c-0.188-0.59-0.457-1.016-0.818-1.286c-0.354-0.271-0.803-0.402-1.346-0.402
		c-0.619,0-1.139,0.147-1.557,0.445c-0.417,0.301-0.712,0.7-0.879,1.203c-0.172,0.5-0.256,1.02-0.256,1.553
		c0,0.688,0.102,1.288,0.299,1.803c0.203,0.512,0.514,0.896,0.936,1.149c0.428,0.257,0.885,0.382,1.379,0.382
		c0.599,0,1.103-0.175,1.523-0.519C70.201,33.051,70.479,32.536,70.628,31.857L70.628,31.857z M72.63,31.195
		c0-1.192,0.32-2.126,0.963-2.801c0.637-0.673,1.467-1.011,2.479-1.011c0.66,0,1.261,0.158,1.791,0.474
		c0.531,0.32,0.939,0.76,1.22,1.327c0.276,0.564,0.42,1.21,0.42,1.926c0,0.729-0.146,1.382-0.438,1.956
		c-0.297,0.574-0.713,1.01-1.254,1.305c-0.539,0.295-1.117,0.444-1.742,0.444c-0.677,0-1.281-0.163-1.813-0.492
		c-0.535-0.325-0.939-0.771-1.213-1.337C72.767,32.424,72.63,31.827,72.63,31.195L72.63,31.195z M73.611,31.21
		c0,0.866,0.231,1.548,0.698,2.046c0.463,0.497,1.05,0.745,1.75,0.745c0.719,0,1.307-0.248,1.77-0.751
		c0.46-0.503,0.691-1.219,0.691-2.144c0-0.584-0.102-1.093-0.299-1.532c-0.193-0.437-0.486-0.771-0.867-1.015
		c-0.383-0.24-0.811-0.359-1.28-0.359c-0.676,0-1.252,0.233-1.74,0.696C73.853,29.356,73.611,30.132,73.611,31.21L73.611,31.21z
		 M80.688,34.695v-7.184h0.951v6.334h3.538v0.85H80.688L80.688,34.695z M86.02,31.195c0-1.192,0.317-2.126,0.959-2.801
		c0.643-0.673,1.469-1.011,2.481-1.011c0.66,0,1.265,0.158,1.793,0.474c0.531,0.32,0.938,0.76,1.222,1.327
		c0.278,0.564,0.42,1.21,0.42,1.926c0,0.729-0.147,1.382-0.44,1.956c-0.294,0.574-0.712,1.01-1.251,1.305
		c-0.537,0.295-1.117,0.444-1.742,0.444c-0.682,0-1.283-0.163-1.813-0.492c-0.537-0.325-0.939-0.771-1.215-1.337
		C86.154,32.424,86.02,31.827,86.02,31.195L86.02,31.195z M86.997,31.21c0,0.866,0.233,1.548,0.7,2.046
		c0.464,0.497,1.05,0.745,1.752,0.745c0.718,0,1.306-0.248,1.763-0.751c0.465-0.503,0.695-1.219,0.695-2.144
		c0-0.584-0.104-1.093-0.298-1.532c-0.199-0.437-0.485-0.771-0.867-1.015c-0.381-0.24-0.811-0.359-1.282-0.359
		c-0.676,0-1.257,0.233-1.737,0.696C87.238,29.356,86.997,30.132,86.997,31.21L86.997,31.21z M94.085,34.695v-7.184h1.433
		l1.696,5.086c0.158,0.473,0.272,0.828,0.343,1.063c0.08-0.26,0.209-0.645,0.387-1.151l1.719-4.996h1.275v7.184h-0.914v-6.013
		l-2.092,6.013h-0.854l-2.074-6.114v6.114L94.085,34.695L94.085,34.695z M102.438,34.695v-7.184h2.692
		c0.55,0,0.989,0.071,1.317,0.217c0.335,0.146,0.597,0.369,0.783,0.672c0.187,0.3,0.277,0.617,0.277,0.948
		c0,0.307-0.08,0.598-0.248,0.868c-0.166,0.269-0.418,0.488-0.752,0.656c0.434,0.127,0.768,0.343,1.004,0.65
		c0.231,0.309,0.352,0.671,0.352,1.089c0,0.337-0.071,0.649-0.215,0.939c-0.145,0.29-0.315,0.512-0.526,0.667
		c-0.207,0.158-0.47,0.273-0.785,0.354s-0.698,0.122-1.16,0.122h-2.739V34.695z M103.387,30.529h1.553
		c0.42,0,0.725-0.027,0.908-0.084c0.241-0.069,0.426-0.188,0.547-0.356c0.119-0.167,0.186-0.376,0.186-0.626
		c0-0.237-0.059-0.448-0.174-0.629c-0.115-0.184-0.275-0.307-0.49-0.372c-0.215-0.066-0.574-0.103-1.091-0.103h-1.437
		L103.387,30.529L103.387,30.529z M103.387,33.845h1.786c0.308,0,0.522-0.012,0.647-0.032c0.22-0.042,0.4-0.104,0.546-0.198
		c0.146-0.089,0.271-0.225,0.368-0.396c0.091-0.176,0.14-0.376,0.14-0.606c0-0.267-0.067-0.5-0.205-0.698
		c-0.137-0.198-0.328-0.337-0.571-0.415c-0.242-0.082-0.595-0.12-1.048-0.12h-1.661L103.387,33.845L103.387,33.845z M109.328,34.695
		v-7.184h0.951v7.184H109.328L109.328,34.695z M111.165,34.695l2.762-7.184h1.022l2.938,7.184h-1.082l-0.84-2.178h-3.004
		l-0.783,2.178H111.165L111.165,34.695z M113.238,31.743h2.437l-0.75-1.988c-0.228-0.604-0.399-1.1-0.51-1.49
		c-0.091,0.462-0.224,0.919-0.388,1.374L113.238,31.743L113.238,31.743z M118.641,34.695v-7.184h0.979l3.771,5.64v-5.64h0.914v7.184
		h-0.979l-3.771-5.646v5.646H118.641L118.641,34.695z M125.107,34.695l2.761-7.184h1.022l2.938,7.184h-1.081l-0.839-2.178h-3.003
		l-0.785,2.178H125.107L125.107,34.695z M127.18,31.743h2.438l-0.753-1.988c-0.229-0.604-0.396-1.1-0.51-1.49
		c-0.088,0.462-0.217,0.919-0.389,1.374L127.18,31.743L127.18,31.743z M64.757,47.324V40.14h2.475c0.555,0,0.982,0.035,1.279,0.103
		c0.412,0.097,0.764,0.269,1.053,0.517c0.379,0.318,0.664,0.727,0.849,1.229c0.19,0.499,0.285,1.066,0.285,1.708
		c0,0.545-0.063,1.026-0.192,1.453c-0.129,0.418-0.289,0.769-0.49,1.043c-0.199,0.275-0.416,0.496-0.653,0.652
		c-0.233,0.152-0.521,0.275-0.856,0.359c-0.334,0.082-0.722,0.125-1.152,0.125L64.757,47.324L64.757,47.324z M65.704,46.477h1.533
		c0.477,0,0.848-0.043,1.115-0.131c0.27-0.09,0.482-0.213,0.646-0.373c0.227-0.225,0.398-0.528,0.525-0.91
		c0.129-0.384,0.189-0.843,0.189-1.386c0-0.75-0.123-1.328-0.369-1.729c-0.25-0.403-0.547-0.676-0.9-0.812
		c-0.253-0.101-0.664-0.146-1.229-0.146h-1.512v5.487H65.704z M72.022,47.324V40.14h5.195v0.849h-4.244v2.196h3.974v0.847h-3.974
		v2.445h4.41v0.851L72.022,47.324L72.022,47.324z M82.118,47.324V39.23h1.071v8.094H82.118L82.118,47.324z M84.968,47.324V40.14
		h0.979l3.77,5.641V40.14h0.912v7.184H89.65l-3.77-5.649v5.649H84.968L84.968,47.324z M95.589,44.507v-0.842l3.045-0.008v2.668
		c-0.469,0.368-0.95,0.651-1.448,0.842c-0.496,0.188-1.009,0.276-1.527,0.276c-0.703,0-1.348-0.146-1.924-0.45
		c-0.575-0.306-1.017-0.738-1.305-1.31c-0.298-0.57-0.439-1.212-0.439-1.917c0-0.7,0.145-1.35,0.438-1.959
		c0.289-0.604,0.711-1.053,1.266-1.35c0.549-0.293,1.183-0.439,1.896-0.439c0.522,0,0.989,0.082,1.409,0.253
		c0.423,0.171,0.753,0.399,0.986,0.702c0.238,0.304,0.423,0.695,0.547,1.178l-0.858,0.234c-0.11-0.367-0.241-0.653-0.399-0.862
		s-0.39-0.377-0.687-0.5c-0.295-0.125-0.627-0.188-0.987-0.188c-0.438,0-0.813,0.064-1.127,0.196
		c-0.316,0.134-0.574,0.308-0.769,0.524c-0.192,0.213-0.345,0.451-0.455,0.713c-0.183,0.441-0.272,0.925-0.272,1.445
		c0,0.639,0.11,1.174,0.334,1.607c0.223,0.432,0.543,0.749,0.963,0.961c0.426,0.209,0.869,0.311,1.344,0.311
		c0.415,0,0.814-0.08,1.205-0.24c0.393-0.156,0.689-0.328,0.891-0.506v-1.34L95.589,44.507L95.589,44.507z M100.052,47.324V40.14
		h5.194v0.849h-4.245v2.196h3.974v0.847h-3.974v2.445h4.406v0.851L100.052,47.324L100.052,47.324z M106.716,47.324V40.14h0.978
		l3.772,5.641V40.14h0.914v7.184h-0.978l-3.774-5.649v5.649H106.716L106.716,47.324z M114.137,47.324V40.14h0.95v7.184H114.137
		L114.137,47.324z M116.779,47.324V40.14h5.193v0.849h-4.246v2.196h3.978v0.847h-3.978v2.445h4.414v0.851L116.779,47.324
		L116.779,47.324z M123.475,47.324V40.14h3.183c0.642,0,1.13,0.063,1.459,0.191c0.333,0.131,0.601,0.357,0.802,0.684
		c0.2,0.328,0.299,0.689,0.299,1.086c0,0.511-0.164,0.938-0.496,1.287c-0.33,0.351-0.84,0.57-1.531,0.668
		c0.254,0.121,0.445,0.24,0.576,0.357c0.279,0.256,0.541,0.57,0.789,0.955l1.254,1.956h-1.197l-0.948-1.494
		c-0.277-0.436-0.509-0.765-0.687-0.987c-0.18-0.23-0.342-0.396-0.481-0.481c-0.146-0.093-0.285-0.155-0.437-0.19
		c-0.107-0.022-0.285-0.035-0.526-0.035h-1.105v3.188L123.475,47.324L123.475,47.324z M124.421,43.312h2.045
		c0.435,0,0.774-0.045,1.019-0.137c0.246-0.092,0.432-0.235,0.561-0.433c0.129-0.2,0.191-0.413,0.191-0.644
		c0-0.338-0.121-0.619-0.369-0.84c-0.248-0.219-0.641-0.328-1.17-0.328h-2.275L124.421,43.312L124.421,43.312z M130.867,47.324
		V40.14h0.949v7.184H130.867L130.867,47.324z M130.62,39.7l0.651-1.372h1.152l-1.072,1.372H130.62L130.62,39.7z M132.703,47.324
		l2.759-7.184h1.022l2.941,7.184h-1.086l-0.838-2.175h-3.004l-0.783,2.175H132.703L132.703,47.324z M134.777,44.375h2.433
		l-0.75-1.988c-0.229-0.604-0.397-1.104-0.508-1.489c-0.099,0.461-0.228,0.917-0.394,1.37L134.777,44.375L134.777,44.375z
		 M64.306,57.658l0.965-0.131c0.025,0.617,0.145,1.043,0.349,1.27c0.207,0.229,0.492,0.34,0.856,0.34c0.27,0,0.5-0.059,0.693-0.182
		c0.196-0.123,0.33-0.295,0.407-0.5c0.071-0.217,0.108-0.557,0.108-1.016v-5.576h1.072v5.518c0,0.678-0.084,1.203-0.248,1.57
		c-0.16,0.373-0.422,0.656-0.775,0.85c-0.357,0.197-0.773,0.297-1.254,0.297c-0.709,0-1.256-0.207-1.631-0.615
		C64.472,59.074,64.292,58.463,64.306,57.658L64.306,57.658z M75.122,52.773h0.954v4.149c0,0.722-0.085,1.298-0.249,1.718
		c-0.162,0.428-0.458,0.768-0.881,1.037c-0.428,0.27-0.986,0.399-1.68,0.399c-0.67,0-1.223-0.113-1.652-0.351
		c-0.426-0.229-0.734-0.567-0.915-1.006c-0.183-0.443-0.276-1.043-0.276-1.801v-4.15h0.953v4.146c0,0.625,0.057,1.086,0.172,1.379
		c0.117,0.295,0.316,0.523,0.598,0.684c0.281,0.164,0.632,0.242,1.039,0.242c0.699,0,1.199-0.158,1.496-0.475
		c0.295-0.314,0.445-0.928,0.445-1.826L75.122,52.773L75.122,52.773z M77.615,59.957v-7.186h0.951v6.336h3.537v0.85H77.615
		L77.615,59.957z M83.396,59.957v-7.186h0.951v7.186H83.396L83.396,59.957z M85.734,56.459c0-1.193,0.318-2.127,0.957-2.801
		c0.644-0.678,1.469-1.014,2.484-1.014c0.662,0,1.264,0.16,1.793,0.473c0.529,0.322,0.938,0.768,1.217,1.328
		c0.275,0.566,0.42,1.211,0.42,1.93c0,0.729-0.145,1.383-0.438,1.955c-0.293,0.574-0.713,1.01-1.248,1.305
		c-0.545,0.297-1.123,0.445-1.744,0.445c-0.679,0-1.284-0.164-1.817-0.492c-0.528-0.324-0.933-0.771-1.207-1.34
		C85.874,57.686,85.734,57.088,85.734,56.459L85.734,56.459z M86.721,56.473c0,0.865,0.229,1.547,0.691,2.047
		c0.468,0.498,1.054,0.748,1.753,0.748c0.722,0,1.306-0.25,1.771-0.754c0.459-0.506,0.692-1.217,0.692-2.139
		c0-0.586-0.103-1.1-0.3-1.529c-0.198-0.436-0.489-0.773-0.866-1.012c-0.382-0.242-0.812-0.361-1.282-0.361
		c-0.673,0-1.255,0.23-1.738,0.695C86.962,54.619,86.721,55.393,86.721,56.473L86.721,56.473z M100.859,56.781v-0.945l3.425-0.008
		v3.002c-0.527,0.42-1.063,0.732-1.628,0.949c-0.561,0.207-1.139,0.316-1.721,0.316c-0.799,0-1.52-0.175-2.168-0.515
		c-0.648-0.343-1.141-0.832-1.471-1.478c-0.332-0.646-0.496-1.362-0.496-2.162c0-0.785,0.168-1.521,0.496-2.205
		c0.326-0.686,0.801-1.188,1.424-1.52c0.615-0.332,1.328-0.5,2.131-0.5c0.59,0,1.111,0.098,1.59,0.287
		c0.476,0.186,0.846,0.451,1.107,0.789c0.271,0.338,0.473,0.781,0.617,1.328l-0.973,0.268c-0.123-0.414-0.271-0.738-0.449-0.975
		c-0.18-0.238-0.436-0.428-0.773-0.564c-0.336-0.145-0.705-0.213-1.111-0.213c-0.491,0-0.914,0.076-1.271,0.227
		c-0.359,0.146-0.643,0.345-0.863,0.589c-0.221,0.241-0.389,0.512-0.512,0.803c-0.205,0.5-0.309,1.045-0.309,1.63
		c0,0.721,0.123,1.325,0.373,1.809c0.246,0.488,0.609,0.85,1.084,1.084c0.473,0.236,0.979,0.352,1.511,0.352
		c0.468,0,0.915-0.09,1.358-0.27c0.438-0.176,0.774-0.365,1.006-0.568v-1.51H100.859L100.859,56.781z M104.98,59.957l2.758-7.186
		h1.021l2.94,7.186h-1.082l-0.841-2.176h-3.004l-0.783,2.176H104.98L104.98,59.957z M107.05,57.006h2.438l-0.754-1.99
		c-0.229-0.604-0.397-1.098-0.51-1.488c-0.092,0.461-0.221,0.916-0.389,1.375L107.05,57.006L107.05,57.006z M112.479,59.957v-7.186
		h3.185c0.644,0,1.126,0.063,1.462,0.192c0.331,0.13,0.6,0.354,0.799,0.685c0.199,0.326,0.301,0.688,0.301,1.082
		c0,0.514-0.166,0.938-0.496,1.291c-0.332,0.352-0.838,0.569-1.524,0.666c0.25,0.121,0.438,0.24,0.569,0.358
		c0.277,0.252,0.545,0.572,0.789,0.953l1.252,1.957h-1.195l-0.946-1.496c-0.276-0.433-0.512-0.765-0.688-0.987
		c-0.178-0.229-0.336-0.392-0.48-0.48c-0.143-0.09-0.285-0.148-0.432-0.189c-0.111-0.02-0.286-0.035-0.529-0.035h-1.105v3.191
		h-0.953L112.479,59.957L112.479,59.957z M113.43,55.945h2.041c0.436,0,0.774-0.045,1.02-0.139c0.244-0.093,0.434-0.236,0.559-0.435
		c0.129-0.192,0.191-0.408,0.191-0.646c0-0.336-0.123-0.619-0.37-0.838c-0.241-0.219-0.636-0.326-1.168-0.326h-2.272V55.945
		L113.43,55.945z M118.921,59.957l2.761-7.186h1.021l2.938,7.186h-1.084l-0.838-2.176h-3.002l-0.787,2.176H118.921L118.921,59.957z
		 M120.994,57.006h2.438l-0.752-1.99c-0.229-0.604-0.397-1.098-0.507-1.488c-0.097,0.461-0.224,0.916-0.391,1.375L120.994,57.006
		L120.994,57.006z M127.71,59.957l-2.78-7.186h1.026l1.868,5.217c0.15,0.418,0.271,0.813,0.375,1.18
		c0.111-0.396,0.242-0.787,0.392-1.18l1.938-5.217h0.97l-2.813,7.186H127.71L127.71,59.957z M132.518,59.957v-7.186h0.948v7.186
		H132.518L132.518,59.957z M136.968,59.957v-6.336h-2.366v-0.85h5.692v0.85h-2.377v6.336H136.968L136.968,59.957z M140.8,56.459
		c0-1.193,0.317-2.127,0.962-2.801c0.643-0.678,1.473-1.014,2.479-1.014c0.663,0,1.268,0.16,1.797,0.473
		c0.53,0.322,0.937,0.768,1.215,1.328c0.28,0.566,0.422,1.211,0.422,1.93c0,0.729-0.146,1.383-0.438,1.955
		c-0.297,0.574-0.715,1.01-1.246,1.305c-0.545,0.297-1.127,0.445-1.748,0.445c-0.68,0-1.278-0.164-1.813-0.492
		c-0.529-0.324-0.936-0.771-1.211-1.34C140.938,57.686,140.8,57.088,140.8,56.459L140.8,56.459z M141.777,56.473
		c0,0.865,0.234,1.547,0.699,2.047c0.467,0.498,1.049,0.748,1.748,0.748c0.723,0,1.303-0.25,1.771-0.754
		c0.461-0.506,0.688-1.217,0.688-2.139c0-0.586-0.104-1.1-0.297-1.529c-0.197-0.436-0.486-0.773-0.865-1.012
		c-0.381-0.242-0.811-0.361-1.283-0.361c-0.676,0-1.25,0.23-1.735,0.695C142.021,54.619,141.777,55.393,141.777,56.473
		L141.777,56.473z"/>
	
		<line fill="none" stroke="#FFFFFF" stroke-width="0.6343" stroke-miterlimit="10" x1="26.374" y1="62.965" x2="54.767" y2="34.431"/>
	<polyline fill="none" stroke="#FFFFFF" stroke-width="0.6343" stroke-miterlimit="10" points="26.374,62.965 31.063,62.965 
		54.767,29.684 54.767,24.78 	"/>
	<path fill="none" stroke="#FFFFFF" stroke-width="0.6343" stroke-miterlimit="10" d="M45.313,62.965l9.441-47.609 M35.946,62.809
		l18.82-38.029 M16.819,62.965l37.95-19.085 M7.354,62.891l47.415-9.438"/>
	<path fill="none" stroke="#FFFFFF" stroke-width="0.6343" stroke-miterlimit="10" d="M54.767,53.451v4.768L7.353,62.965h4.862
		l42.552-14.324v-4.762 M54.767,34.431v4.682L21.538,62.965h-4.72"/>
	
		<line fill="none" stroke="#FFFFFF" stroke-width="0.6343" stroke-miterlimit="10" x1="57.417" y1="58.264" x2="57.417" y2="10.414"/>
	
		<line fill="none" stroke="#FFFFFF" stroke-width="0.6343" stroke-miterlimit="10" x1="60.021" y1="65.145" x2="2.442" y2="65.145"/>
	<polyline fill="none" stroke="#FFFFFF" stroke-width="0.6343" stroke-miterlimit="10" points="45.313,62.965 50.093,62.965 
		54.767,15.282 54.767,20.199 40.673,62.965 35.938,62.965 	"/>
</g>
</svg>
